<?xml version="1.0" encoding="utf-8"?>
<!-- Generator: Adobe Illustrator 18.0.0, SVG Export Plug-In . SVG Version: 6.00 Build 0)  -->
<!DOCTYPE svg PUBLIC "-//W3C//DTD SVG 1.1//EN" "http://www.w3.org/Graphics/SVG/1.1/DTD/svg11.dtd">
<svg version="1.1" xmlns="http://www.w3.org/2000/svg" xmlns:xlink="http://www.w3.org/1999/xlink" x="0px" y="0px"
	 viewBox="0 0 100 100" enable-background="new 0 0 100 100" xml:space="preserve">
<g id="Layer_1" display="none">
	<g id="Captions" display="inline">
	</g>
	<g id="Your_Icon" display="inline">
		<path fill="#FFFFFF" d="M50,66.2c8.5,0,15.4-6.9,15.4-15.4v-35c0-8.5-6.9-15.4-15.4-15.4S34.6,7.2,34.6,15.7v35
			C34.6,59.2,41.5,66.2,50,66.2z"/>
		<path fill="#FFFFFF" d="M73.1,37.9c-1.8,0-3.2,1.4-3.2,3.2v9.7c0,11-8.9,19.9-19.9,19.9c-11,0-19.9-8.9-19.9-19.9V41
			c0-1.8-1.4-3.2-3.2-3.2s-3.2,1.4-3.2,3.2v9.7c0,14.5,11.8,26.2,26.2,26.2s26.2-11.8,26.2-26.2V41C76.2,39.3,74.8,37.9,73.1,37.9z"
			/>
		<path fill="#FFFFFF" d="M63.1,93.4h-9.9V79.3c-1,0.1-2.1,0.2-3.2,0.2c-1.1,0-2.1-0.1-3.2-0.2v14.2h-9.9c-1.8,0-3.2,1.4-3.2,3.2
			v3.2h32.5v-3.2C66.2,94.8,64.8,93.4,63.1,93.4z"/>
	</g>
</g>
<g id="Layer_2">
	<g>
		<path fill="#FFFFFF" d="M12.7,40.2H3.3v-6.5h26.6v6.5h-9.4v27.7h-7.7V40.2z"/>
		<path fill="#FFFFFF" d="M35.2,33.7h11.7c7.1,0,12.7,1.9,12.7,8.5c0,3-1.8,6.4-5.8,7.4v0.2c4.9,0.9,7.5,3.5,7.5,8
			c0,7-5.9,10.1-13.3,10.1H35.2V33.7z M46.5,47.5c3.8,0,5.5-1.6,5.5-4.2c0-2.6-1.8-3.6-5.4-3.6h-3.7v7.8H46.5z M47.2,61.9
			c4.2,0,6.4-1.6,6.4-4.7c0-3-2.2-4.3-6.4-4.3h-4.3v9H47.2z"/>
		<path fill="#FFFFFF" d="M66.9,33.7h9.7c10.5,0,17.2,5.2,17.2,17c0,11.8-6.7,17.3-16.7,17.3H66.9V33.7z M76.1,61.6
			c5.8,0,9.7-2.8,9.7-11c0-8.2-3.9-10.7-9.7-10.7h-1.5v21.7H76.1z"/>
	</g>
</g>
</svg>
