<?xml version="1.0" encoding="utf-8"?>
<!-- Generator: Adobe Illustrator 18.0.0, SVG Export Plug-In . SVG Version: 6.00 Build 0)  -->
<!DOCTYPE svg PUBLIC "-//W3C//DTD SVG 1.1//EN" "http://www.w3.org/Graphics/SVG/1.1/DTD/svg11.dtd">
<svg version="1.1" id="Layer_1" xmlns="http://www.w3.org/2000/svg" xmlns:xlink="http://www.w3.org/1999/xlink" x="0px" y="0px"
	 viewBox="0 0 100 100" enable-background="new 0 0 100 100" xml:space="preserve">
<g id="Captions">
</g>
<g id="Your_Icon">
	<path fill="#FFFFFF" d="M50,66.2c8.5,0,15.4-6.9,15.4-15.4v-35c0-8.5-6.9-15.4-15.4-15.4S34.6,7.2,34.6,15.7v35
		C34.6,59.2,41.5,66.2,50,66.2z"/>
	<path fill="#FFFFFF" d="M73.1,37.9c-1.8,0-3.2,1.4-3.2,3.2v9.7c0,11-8.9,19.9-19.9,19.9c-11,0-19.9-8.9-19.9-19.9V41
		c0-1.8-1.4-3.2-3.2-3.2s-3.2,1.4-3.2,3.2v9.7c0,14.5,11.8,26.2,26.2,26.2s26.2-11.8,26.2-26.2V41C76.2,39.3,74.8,37.9,73.1,37.9z"
		/>
	<path fill="#FFFFFF" d="M63.1,93.4h-9.9V79.3c-1,0.1-2.1,0.2-3.2,0.2c-1.1,0-2.1-0.1-3.2-0.2v14.2h-9.9c-1.8,0-3.2,1.4-3.2,3.2v3.2
		h32.5v-3.2C66.2,94.8,64.8,93.4,63.1,93.4z"/>
</g>
</svg>
